<?xml version="1.0" encoding="utf-8"?>
<!-- Generator: Adobe Illustrator 26.0.1, SVG Export Plug-In . SVG Version: 6.00 Build 0)  -->
<svg version="1.1" id="Layer_1" focusable="false" xmlns="http://www.w3.org/2000/svg" xmlns:xlink="http://www.w3.org/1999/xlink"
	 x="0px" y="0px" viewBox="0 0 448 512" style="enable-background:new 0 0 448 512;" xml:space="preserve">
<style type="text/css">
	.st0{fill:#E2AE69;}
</style>
<path class="st0" d="M408.8,128c-22.4-0.4-40.8,18.4-40.8,40.8V256h-8V79.8c0-22.4-18.4-41.2-40.8-40.8C297.5,39.4,280,57.2,280,79
	v177h-8V40.8c0-22.4-18.4-41.2-40.8-40.8C209.5,0.4,192,18.2,192,40v216h-8V80.8c0-22.4-18.4-41.2-40.8-40.8
	C121.5,40.4,104,58.2,104,80v236l-31.6-43.5c-13-17.9-38-21.8-55.9-8.8c-17.9,13-21.8,38-8.8,55.9l125.6,172.7
	c9,12.4,23.5,19.8,38.8,19.8h197.6c22.3,0,41.6-15.3,46.7-37l26.5-112.7c3.4-14.4,5.1-29.2,5.1-44V168
	C448,146.2,430.5,128.4,408.8,128z"/>
</svg>
