<?xml version="1.0" encoding="utf-8"?>
<!-- Generator: Adobe Illustrator 26.0.1, SVG Export Plug-In . SVG Version: 6.00 Build 0)  -->
<svg version="1.1" id="Layer_1" focusable="false" xmlns="http://www.w3.org/2000/svg" xmlns:xlink="http://www.w3.org/1999/xlink"
	 x="0px" y="0px" viewBox="0 0 512 512" style="enable-background:new 0 0 512 512;" xml:space="preserve">
<style type="text/css">
	.st0{fill:#E2AE69;}
</style>
<path class="st0" d="M464.8,80c-26.9-0.4-48.8,21.2-48.8,48h-8V96.8c0-26.3-20.9-48.3-47.2-48.8C333.9,47.6,312,69.2,312,96v32h-8
	V80.8c0-26.3-20.9-48.3-47.2-48.8C229.9,31.6,208,53.2,208,80v48h-8V96.8c0-26.3-20.9-48.3-47.2-48.8C125.9,47.6,104,69.2,104,96
	v136l-8-7.1v-48.1c0-26.3-20.9-48.3-47.2-48.8C21.9,127.6,0,149.2,0,176v66.4c0,27.4,11.7,53.5,32.2,71.8l111.7,99.3
	c10.2,9.1,16.1,22.2,16.1,35.9v6.7c0,13.3,10.7,24,24,24h240c13.3,0,24-10.7,24-24v-2.9c0-12.8,2.6-25.5,7.5-37.3l49-116.3
	c5-11.8,7.5-24.5,7.5-37.3V128.8C512,102.5,491.1,80.4,464.8,80z"/>
</svg>
