<?xml version="1.0" encoding="utf-8"?>
<!-- Generator: Adobe Illustrator 26.0.1, SVG Export Plug-In . SVG Version: 6.00 Build 0)  -->
<svg version="1.1" id="Layer_1" focusable="false" xmlns="http://www.w3.org/2000/svg" xmlns:xlink="http://www.w3.org/1999/xlink"
	 x="0px" y="0px" viewBox="0 0 512 512" style="enable-background:new 0 0 512 512;" xml:space="preserve">
<style type="text/css">
	.st0{fill:#E2AE69;}
</style>
<path class="st0" d="M216,440c0-22.1,17.9-40,40-40v-8h-32c-22.1,0-40-17.9-40-40s17.9-40,40-40h32v-8H48c-26.5,0-48-21.5-48-48
	s21.5-48,48-48h208v-13.6L78.4,124.7C53.8,115,41.6,87.1,51.3,62.5c9.7-24.7,37.6-36.8,62.2-27.1l190.3,74.8L328.8,79
	c12.3-15.4,34-19.5,51.1-9.7l112,64c12.5,7.1,20.2,20.4,20.2,34.7v240c0,18.6-12.8,34.7-30.8,38.9l-136,32c-3,0.7-6.1,1.1-9.2,1.1
	h-80C233.9,480,216,462.1,216,440z"/>
</svg>
